<?xml version="1.0" standalone="no"?><!DOCTYPE svg PUBLIC "-//W3C//DTD SVG 1.1//EN"
    "http://www.w3.org/Graphics/SVG/1.1/DTD/svg11.dtd">
<svg t="1544773370562" class="icon" style="" viewBox="0 0 1024 1024" version="1.1" xmlns="http://www.w3.org/2000/svg"
     p-id="2349" xmlns:xlink="http://www.w3.org/1999/xlink" width="200" height="200">
    <defs>
        <style type="text/css"></style>
    </defs>
    <path
        d="M869.376 669.696h-144.896c-20.48 0-36.864-16.384-36.864-36.864s16.384-36.864 36.864-36.864h129.024c20.48 0 36.864-16.384 36.864-36.864s-16.384-36.864-36.864-36.864h-155.136c-20.48 0-36.864-16.384-36.864-36.864s16.384-36.864 36.864-36.864h117.76c20.48 0 36.864-16.384 36.864-36.864s-16.384-36.864-36.864-36.864H282.624c-20.48 0-36.864 16.384-36.864 36.864s16.384 36.864 36.864 36.864h74.24c20.48 0 36.864 16.384 36.864 36.864s-16.384 36.864-36.864 36.864H125.44c-20.48 0-36.864 16.384-36.864 36.864s16.384 36.864 36.864 36.864h274.944c20.48 0 36.864 16.384 36.864 36.864s-16.384 36.864-36.864 36.864H335.36c-20.48 0-36.864 16.384-36.864 36.864s16.384 36.864 36.864 36.864h534.016c20.48 0 36.864-16.384 36.864-36.864s-16.384-36.864-36.864-36.864z"
        fill="#E6EAEF" p-id="2350"></path>
    <path
        d="M806.4 441.344c-8.192 0-15.36-6.656-15.36-15.36s6.656-15.36 15.36-15.36 15.36 6.656 15.36 15.36-6.656 15.36-15.36 15.36z m0-24.064c-5.12 0-9.216 4.096-9.216 9.216s4.096 9.216 9.216 9.216 9.216-4.096 9.216-9.216-4.096-9.216-9.216-9.216z"
        fill="#B2B2B2" p-id="2351"></path>
    <path
        d="M625.152 327.68c-7.168 0-12.8-5.632-12.8-12.8s5.632-12.8 12.8-12.8 12.8 5.632 12.8 12.8-5.632 12.8-12.8 12.8z m0-19.456c-3.584 0-6.656 3.072-6.656 6.656 0 3.584 3.072 6.656 6.656 6.656s6.656-3.072 6.656-6.656c0-3.584-2.56-6.656-6.656-6.656z"
        fill="#CCCCCC" p-id="2352"></path>
    <path d="M528.384 274.944m-5.632 0a5.632 5.632 0 1 0 11.264 0 5.632 5.632 0 1 0-11.264 0Z" fill="#CCCCCC"
          p-id="2353"></path>
    <path d="M438.784 315.904m-4.608 0a4.608 4.608 0 1 0 9.216 0 4.608 4.608 0 1 0-9.216 0Z" fill="#CCCCCC"
          p-id="2354"></path>
    <path
        d="M332.8 327.68c-10.24 0-18.432-8.192-18.432-18.432s8.192-18.432 18.432-18.432 18.432 8.192 18.432 18.432S343.04 327.68 332.8 327.68z m0-31.232c-7.168 0-12.8 5.632-12.8 12.8s5.632 12.8 12.8 12.8 12.8-5.632 12.8-12.8c-0.512-7.168-6.144-12.8-12.8-12.8z"
        fill="#CCCCCC" p-id="2355"></path>
    <path
        d="M142.848 318.976c-11.264 0-20.992-9.216-20.992-20.992s9.216-20.992 20.992-20.992S163.84 286.72 163.84 297.984s-9.728 20.992-20.992 20.992z m0-35.84c-8.192 0-14.848 6.656-14.848 14.848s6.656 14.848 14.848 14.848c8.192 0 14.848-6.656 14.848-14.848s-6.656-14.848-14.848-14.848z"
        fill="#B2B2B2" p-id="2356"></path>
    <path d="M221.184 334.848m-6.144 0a6.144 6.144 0 1 0 12.288 0 6.144 6.144 0 1 0-12.288 0Z" fill="#CCCCCC"
          p-id="2357"></path>
    <path
        d="M294.912 242.688h-1.024c-2.048 0-3.584-1.536-3.584-4.096v-19.968c0-2.048 1.536-3.584 3.584-3.584h1.024c2.048 0 4.096 1.536 4.096 3.584v19.968c0 2.048-1.536 4.096-4.096 4.096z"
        fill="#B2B2B2" p-id="2358"></path>
    <path
        d="M280.576 229.376v-1.024c0-2.048 1.536-4.096 4.096-4.096h19.968c2.048 0 4.096 1.536 4.096 4.096v1.024c0 2.048-1.536 4.096-4.096 4.096h-19.968c-2.048 0-4.096-2.048-4.096-4.096zM927.232 586.752h-0.512c-1.536 0-2.56-1.024-2.56-2.56v-13.312c0-1.536 1.024-2.56 2.56-2.56h0.512c1.536 0 2.56 1.024 2.56 2.56v13.312c0 1.536-1.536 2.56-2.56 2.56z"
        fill="#B2B2B2" p-id="2359"></path>
    <path
        d="M917.504 578.048v-0.512c0-1.536 1.024-2.56 2.56-2.56h13.312c1.536 0 2.56 1.024 2.56 2.56v0.512c0 1.536-1.024 2.56-2.56 2.56h-13.312c-1.536 0-2.56-1.024-2.56-2.56zM135.68 397.824h-3.072c-1.536 0-2.56-1.024-2.56-2.56v-19.456c0-1.536 1.024-2.56 2.56-2.56h3.072c1.536 0 2.56 1.024 2.56 2.56v19.456c0 1.536-1.536 2.56-2.56 2.56z"
        fill="#B2B2B2" p-id="2360"></path>
    <path
        d="M121.856 386.56V384c0-1.536 1.024-2.56 2.56-2.56h19.456c1.536 0 2.56 1.024 2.56 2.56v3.072c0 1.536-1.024 2.56-2.56 2.56h-19.456c-1.536-0.512-2.56-1.536-2.56-3.072z"
        fill="#B2B2B2" p-id="2361"></path>
    <path d="M564.224 553.472m-141.312 0a141.312 141.312 0 1 0 282.624 0 141.312 141.312 0 1 0-282.624 0Z"
          fill="#FFFFFF" p-id="2362"></path>
    <path
        d="M447.488 559.616c0 43.008 19.456 81.408 50.176 107.52 14.848 6.656 31.744 10.24 48.64 10.24 67.584 0 122.368-54.784 122.368-122.368s-54.784-122.368-122.368-122.368c-7.168 0-14.336 0.512-21.504 2.048-45.568 22.528-77.312 70.144-77.312 124.928z"
        fill="#F4CCC1" p-id="2363"></path>
    <path
        d="M683.008 523.776c-16.896-75.264-92.16-122.88-167.936-105.472-20.992 4.608-39.936 13.824-55.808 26.624 0 0-0.512 0.512-1.024 0.512-2.048 2.048-3.584 5.12-2.56 8.704 1.024 4.608 5.632 7.68 10.752 6.656 1.536-0.512 2.56-1.024 3.584-2.048 13.824-10.752 30.208-18.944 48.64-23.552 66.048-14.848 131.584 26.624 146.432 92.16s-26.624 131.584-92.16 146.432c-66.048 14.848-131.584-26.624-146.432-92.16-5.12-23.552-3.584-46.592 4.096-68.096 1.024-2.048 1.536-4.096 1.024-6.144-1.024-4.608-5.632-7.68-10.752-6.656-2.56 1.024-5.12 3.072-6.144 6.144-8.704 24.576-11.264 51.712-5.12 78.848 16.896 75.264 92.16 122.88 167.936 105.472 75.776-16.896 122.88-92.16 105.472-167.424z"
        fill="#999999" p-id="2364"></path>
    <path
        d="M559.104 554.496l39.424-39.424c3.584-3.584 3.584-8.704 0-12.288s-8.704-3.584-12.288 0l-39.424 39.424-39.424-39.424c-3.584-3.584-8.704-3.584-12.288 0s-3.584 8.704 0 12.288l39.424 39.424-39.424 39.424c-3.584 3.584-3.584 8.704 0 12.288s8.704 3.584 12.288 0l39.424-39.424 39.424 39.424c3.584 3.584 8.704 3.584 12.288 0s3.584-8.704 0-12.288l-39.424-39.424z"
        fill="#999999" p-id="2365"></path>
</svg>
